<?xml version="1.0" encoding="UTF-8"?>
<svg width="32px" height="32px" viewBox="0 0 32 32" version="1.1" xmlns="http://www.w3.org/2000/svg" xmlns:xlink="http://www.w3.org/1999/xlink">
    <title>004_on@3x</title>
    <g id="Page-1" stroke="none" stroke-width="1" fill="none" fill-rule="evenodd">
        <g id="Artboard-Copy-2" transform="translate(-195.000000, -703.000000)">
            <g id="icon" transform="translate(15.000000, 703.000000)">
                <g id="004_on" transform="translate(180.000000, 0.000000)">
                    <rect id="Rectangle" fill-opacity="0" fill="#FFFFFF" x="0" y="0" width="32" height="32"></rect>
                    <g id="Group" transform="translate(6.000000, 6.000000)">
                        <path d="M3,14.6363636 L14,20 L14,2.15463772 L4.19377532,6.47415692 C3.46826423,6.79373547 3,7.51168002 3,8.30445792 L3,14.6363636 L3,14.6363636 Z" id="Path-6" fill-opacity="0.2" fill="#C9DEFF"></path>
                        <polyline id="Path-3" stroke="#4A6DA7" stroke-width="1.5" stroke-linecap="round" stroke-linejoin="round" transform="translate(1.000000, 10.000000) rotate(90.000000) translate(-1.000000, -10.000000) " points="-2 9 -2 11 4 11 4 9"></polyline>
                        <line x1="20" y1="9" x2="20" y2="11" id="Path-3-Copy-2" stroke="#4A6DA7" stroke-width="1.5" stroke-linecap="round" stroke-linejoin="round" transform="translate(20.000000, 10.000000) rotate(90.000000) translate(-20.000000, -10.000000) "></line>
                        <line x1="18.5" y1="4.5" x2="19.5" y2="6.5" id="Path-3-Copy-3" stroke="#4A6DA7" stroke-width="1.5" stroke-linecap="round" stroke-linejoin="round" transform="translate(19.000000, 5.500000) rotate(90.000000) translate(-19.000000, -5.500000) "></line>
                        <line x1="18.5" y1="13.5" x2="19.5" y2="15.5" id="Path-3-Copy-4" stroke="#4A6DA7" stroke-width="1.5" stroke-linecap="round" stroke-linejoin="round" transform="translate(19.000000, 14.500000) scale(-1, 1) rotate(90.000000) translate(-19.000000, -14.500000) "></line>
                        <polyline id="Path-3-Copy" stroke="#4A6DA7" stroke-width="1.5" stroke-linecap="round" stroke-linejoin="round" transform="translate(8.500000, 10.000000) rotate(90.000000) translate(-8.500000, -10.000000) " points="15.5975395 4.5 -1.5 4.5 3.5 15.5 13.5 15.5 18.5 4.5"></polyline>
                    </g>
                </g>
            </g>
        </g>
    </g>
</svg>