<?xml version="1.0" encoding="UTF-8"?>
<svg width="32px" height="32px" viewBox="0 0 32 32" version="1.1" xmlns="http://www.w3.org/2000/svg" xmlns:xlink="http://www.w3.org/1999/xlink">
    <title>006_off@3x</title>
    <g id="Page-1" stroke="none" stroke-width="1" fill="none" fill-rule="evenodd">
        <g id="Artboard-Copy" transform="translate(-315.000000, -703.000000)">
            <g id="icon" transform="translate(15.000000, 703.000000)">
                <g id="006_off" transform="translate(300.000000, 0.000000)">
                    <rect id="Rectangle-Copy-5" fill-opacity="0" fill="#FFFFFF" x="0" y="0" width="32" height="32"></rect>
                    <g id="Group-4" transform="translate(5.000000, 5.000000)" stroke="#111111" stroke-width="1.5">
                        <path d="M11,0.75 C11.4253464,0.75 11.8446511,0.776338265 12.2564226,0.827531165 L13.2157621,3.30349893 C14.1130274,3.56190674 14.9465732,3.97486393 15.6871901,4.51204482 L18.1797212,3.73526786 C18.7838743,4.33787044 19.315355,5.01576967 19.7595784,5.75403291 L18.4640209,8.05078438 C18.8110322,8.89695018 19.0232765,9.81469468 19.0738211,10.7761811 L21.2191117,12.27247 C21.1335861,13.1516942 20.9414855,13.9989949 20.6560397,14.8007341 L18.083407,15.2014646 C17.6366693,16.0256955 17.0552729,16.7636229 16.3693514,17.3843558 L16.559383,20.0338956 C15.8573454,20.4958572 15.0964309,20.8729625 14.2905779,21.1508022 L12.3674511,19.3406202 C11.9292202,19.4157891 11.4789801,19.4548717 11.0197734,19.4548717 C10.549189,19.4548717 10.0880211,19.4138281 9.63954441,19.3349669 L7.70952567,21.1508379 C6.90356386,20.8729705 6.14255169,20.4958111 5.440433,20.0337746 L5.63175872,17.3493494 C4.96447506,16.7377196 4.39779526,16.0144522 3.9599463,15.2084793 L1.34397427,14.8007733 C1.05851376,13.9990028 0.86640583,13.1516667 0.780881957,12.2724049 L2.96731105,10.7469909 C3.01973096,9.81129525 3.22531752,8.91737079 3.5591796,8.09094494 L2.24095933,5.75313933 C2.68506267,5.01524138 3.21634248,4.33766169 3.82023285,3.73531371 L6.340084,4.52096391 C7.07104958,3.98869034 7.89294501,3.57759651 8.77757501,3.31696044 L9.74336335,0.827557773 C10.1552037,0.776347391 10.5745799,0.75 11,0.75 Z" id="Combined-Shape"></path>
                        <path d="M11.8384558,14.9119815 C12.2356664,14.8272595 12.6110434,14.6835728 12.9549863,14.4905222 C14.1753689,13.8055374 15,12.4990702 15,11 C15,8.790861 13.209139,7 11,7 C8.790861,7 7,8.790861 7,11 C7,11.5994585 7.13186637,12.168118 7.3681741,12.6785534 C7.7254563,13.4502992 8.32148632,14.0889476 9.06147749,14.499712" id="Oval" stroke-linecap="round" transform="translate(11.000000, 10.955991) rotate(30.000000) translate(-11.000000, -10.955991) "></path>
                    </g>
                </g>
            </g>
        </g>
    </g>
</svg>