<?xml version="1.0" encoding="UTF-8"?>
<svg width="32px" height="32px" viewBox="0 0 32 32" version="1.1" xmlns="http://www.w3.org/2000/svg" xmlns:xlink="http://www.w3.org/1999/xlink">
    <title>봉사자</title>
    <g id="Page-1" stroke="none" stroke-width="1" fill="none" fill-rule="evenodd">
        <g id="Artboard-Copy-2" transform="translate(-75.000000, -703.000000)">
            <g id="icon" transform="translate(15.000000, 703.000000)">
                <g id="Group-3" transform="translate(60.000000, 0.000000)">
                    <rect id="Rectangle-Copy" fill-opacity="0" fill="#FFFFFF" x="0" y="0" width="32" height="32"></rect>
                    <g id="Group-2" transform="translate(4.000000, 5.000000)">
                        <path d="M2,21.0139971 L24,21.0139971 L24,5.01399714 L4,5.01399714 C2.8954305,5.01399714 2,5.90942764 2,7.01399714 L2,21.0139971 L2,21.0139971 Z" id="Path-6" fill-opacity="0.2" fill="#C9DEFF"></path>
                        <polyline id="Path-4" stroke="#4A6DA7" stroke-width="1.5" stroke-linejoin="round" transform="translate(12.000000, 13.000000) scale(1, -1) translate(-12.000000, -13.000000) " points="10 15 10 11 14 11 14 15"></polyline>
                        <polygon id="Path-3" stroke="#4A6DA7" stroke-width="1.5" stroke-linecap="round" stroke-linejoin="round" points="0 3 0 21 24 21 24 3"></polygon>
                        <polyline id="Path" stroke="#4A6DA7" stroke-width="1.5" stroke-linecap="round" stroke-linejoin="round" transform="translate(12.000000, 9.000000) scale(1, -1) translate(-12.000000, -9.000000) " points="3 12 12 6 21 12"></polyline>
                        <polyline id="Path-4" stroke="#4A6DA7" stroke-width="1.5" stroke-linejoin="round" points="8 3 8 0 16 0 16 3"></polyline>
                    </g>
                </g>
            </g>
        </g>
    </g>
</svg>