<?xml version="1.0" encoding="UTF-8"?>
<svg width="32px" height="32px" viewBox="0 0 32 32" version="1.1" xmlns="http://www.w3.org/2000/svg" xmlns:xlink="http://www.w3.org/1999/xlink">
    <title>003_off@3x</title>
    <g id="Page-1" stroke="none" stroke-width="1" fill="none" fill-rule="evenodd">
        <g id="Artboard-Copy" transform="translate(-135.000000, -703.000000)">
            <g id="icon" transform="translate(15.000000, 703.000000)">
                <g id="Group-3" transform="translate(120.000000, 0.000000)">
                    <rect id="Rectangle-Copy" fill-opacity="0" fill="#FFFFFF" x="0" y="0" width="32" height="32"></rect>
                    <g id="Group" transform="translate(7.000000, 2.000000)" stroke="#111111" stroke-linejoin="round" stroke-width="1.5">
                        <g id="Group-2">
                            <path d="M1,28 L1,26.5 C1,25.6715729 1.67157288,25 2.5,25 C3.32842712,25 4,25.6715729 4,26.5 L4,28 L4,28" id="Path-4" transform="translate(2.500000, 26.500000) scale(1, -1) translate(-2.500000, -26.500000) "></path>
                            <path d="M14,28 L14,26.5 C14,25.6715729 14.6715729,25 15.5,25 C16.3284271,25 17,25.6715729 17,26.5 L17,28 L17,28" id="Path-4-Copy" transform="translate(15.500000, 26.500000) scale(1, -1) translate(-15.500000, -26.500000) "></path>
                            <polygon id="Path-3" stroke-linecap="round" points="0 4 0 25 18 25 18 4"></polygon>
                            <polyline id="Path-4" stroke-linecap="round" points="3 12 3 8 15 8 15 12"></polyline>
                            <polyline id="Path-4-Copy-2" stroke-linecap="round" points="3 19 3 15 15 15 15 19"></polyline>
                            <polyline id="Path-4" points="6 4 6 0 12 0 12 4"></polyline>
                        </g>
                    </g>
                </g>
            </g>
        </g>
    </g>
</svg>